<svg width="14" height="14" viewBox="0 0 14 14" fill="none" xmlns="http://www.w3.org/2000/svg">
<path d="M6.78223 12.4854H12.5645H6.78223Z" fill="white"/>
<path d="M6.78223 12.4854H12.5645" stroke="#838383" stroke-width="2" stroke-linecap="round" stroke-linejoin="round"/>
<path d="M9.67339 1.4168C9.92898 1.14993 10.2756 1 10.6371 1C10.8161 1 10.9933 1.03681 11.1587 1.10832C11.324 1.17984 11.4743 1.28466 11.6008 1.4168C11.7274 1.54894 11.8278 1.70582 11.8962 1.87847C11.9647 2.05112 12 2.23617 12 2.42305C12 2.60993 11.9647 2.79498 11.8962 2.96763C11.8278 3.14028 11.7274 3.29716 11.6008 3.4293L3.56989 11.8147L1 12.4855L1.64247 9.8022L9.67339 1.4168Z" fill="white" stroke="#838383" stroke-width="2" stroke-linecap="round" stroke-linejoin="round"/>
</svg>
