<svg width="20" height="19" viewBox="0 0 21 19" fill="none" xmlns="http://www.w3.org/2000/svg">
<path d="M19.8681 16.29L16.1872 12.9C17.3748 11.5025 18.0192 9.77666 18.0168 8C18.0168 6.41775 17.5089 4.87103 16.5572 3.55544C15.6055 2.23985 14.2528 1.21447 12.6702 0.608967C11.0876 0.00346625 9.34616 -0.15496 7.66608 0.153721C5.986 0.462403 4.44274 1.22433 3.23147 2.34315C2.0202 3.46197 1.19532 4.88743 0.861126 6.43928C0.526937 7.99113 0.698455 9.59966 1.35399 11.0615C2.00953 12.5233 3.11964 13.7727 4.54394 14.6518C5.96825 15.5308 7.64277 16 9.35577 16C11.2792 16.0022 13.1476 15.407 14.6607 14.31L18.3308 17.71C18.4314 17.8037 18.5512 17.8781 18.6831 17.9289C18.815 17.9797 18.9565 18.0058 19.0995 18.0058C19.2424 18.0058 19.3839 17.9797 19.5158 17.9289C19.6478 17.8781 19.7675 17.8037 19.8681 17.71C19.9696 17.617 20.0502 17.5064 20.1051 17.3846C20.1601 17.2627 20.1884 17.132 20.1884 17C20.1884 16.868 20.1601 16.7373 20.1051 16.6154C20.0502 16.4936 19.9696 16.383 19.8681 16.29ZM2.85997 8C2.85997 6.81332 3.24094 5.65328 3.95471 4.66658C4.66848 3.67989 5.68298 2.91085 6.86994 2.45673C8.05689 2.0026 9.36298 1.88378 10.623 2.11529C11.8831 2.3468 13.0405 2.91825 13.949 3.75736C14.8574 4.59648 15.4761 5.66558 15.7268 6.82946C15.9774 7.99335 15.8488 9.19975 15.3571 10.2961C14.8655 11.3925 14.0329 12.3295 12.9646 12.9888C11.8964 13.6481 10.6405 14 9.35577 14C7.63298 14 5.98075 13.3679 4.76255 12.2426C3.54435 11.1174 2.85997 9.5913 2.85997 8Z" fill="#017BFF"/>
</svg>
