<svg width="74" height="19" viewBox="0 0 74 19" fill="none" xmlns="http://www.w3.org/2000/svg">
<path d="M15.7123 7.84274L17.489 9.61952L16.2581 10.8505L8.74452 3.33694L1.23097 10.8505L0 9.61952L8.74452 0.875L13.3897 5.52016V3.19758H15.7123V7.84274ZM8.74452 4.98597L15.7123 11.9421V18.875H1.77677V11.9421L8.74452 4.98597ZM11.0671 17.7137V11.9073H6.42194V17.7137H11.0671Z" fill="white"/>
<path d="M39.8608 16V7.27273H41.4418V10.9673H45.4858V7.27273H47.071V16H45.4858V12.2926H41.4418V16H39.8608ZM51.5774 16.1278C50.9382 16.1278 50.3842 15.9872 49.9155 15.706C49.4467 15.4247 49.0831 15.0312 48.8246 14.5256C48.5689 14.0199 48.4411 13.429 48.4411 12.7528C48.4411 12.0767 48.5689 11.4844 48.8246 10.9759C49.0831 10.4673 49.4467 10.0724 49.9155 9.79119C50.3842 9.50994 50.9382 9.36932 51.5774 9.36932C52.2166 9.36932 52.7706 9.50994 53.2393 9.79119C53.7081 10.0724 54.0703 10.4673 54.326 10.9759C54.5845 11.4844 54.7138 12.0767 54.7138 12.7528C54.7138 13.429 54.5845 14.0199 54.326 14.5256C54.0703 15.0312 53.7081 15.4247 53.2393 15.706C52.7706 15.9872 52.2166 16.1278 51.5774 16.1278ZM51.5859 14.892C51.9325 14.892 52.2223 14.7969 52.4553 14.6065C52.6882 14.4134 52.8615 14.1548 52.9751 13.831C53.0916 13.5071 53.1499 13.1463 53.1499 12.7486C53.1499 12.348 53.0916 11.9858 52.9751 11.6619C52.8615 11.3352 52.6882 11.0753 52.4553 10.8821C52.2223 10.6889 51.9325 10.5923 51.5859 10.5923C51.2308 10.5923 50.9354 10.6889 50.6996 10.8821C50.4666 11.0753 50.2919 11.3352 50.1754 11.6619C50.0618 11.9858 50.005 12.348 50.005 12.7486C50.005 13.1463 50.0618 13.5071 50.1754 13.831C50.2919 14.1548 50.4666 14.4134 50.6996 14.6065C50.9354 14.7969 51.2308 14.892 51.5859 14.892ZM56.0231 16V9.45455H57.4975V10.5668H57.5742C57.7106 10.1918 57.9364 9.89915 58.2518 9.68892C58.5671 9.47585 58.9435 9.36932 59.381 9.36932C59.8242 9.36932 60.1978 9.47727 60.5018 9.69318C60.8086 9.90625 61.0245 10.1974 61.1495 10.5668H61.2177C61.3626 10.2031 61.6069 9.91335 61.9506 9.69744C62.2972 9.47869 62.7077 9.36932 63.1822 9.36932C63.7844 9.36932 64.2759 9.55966 64.6566 9.94034C65.0373 10.321 65.2276 10.8764 65.2276 11.6065V16H63.6808V11.8452C63.6808 11.4389 63.5728 11.142 63.3569 10.9545C63.141 10.7642 62.8768 10.669 62.5643 10.669C62.1921 10.669 61.9009 10.7855 61.6907 11.0185C61.4833 11.2486 61.3796 11.5483 61.3796 11.9176V16H59.8668V11.7812C59.8668 11.4432 59.7646 11.1733 59.56 10.9716C59.3583 10.7699 59.0941 10.669 58.7674 10.669C58.5458 10.669 58.3441 10.7259 58.1623 10.8395C57.9805 10.9503 57.8356 11.108 57.7276 11.3125C57.6197 11.5142 57.5657 11.75 57.5657 12.0199V16H56.0231ZM69.6903 16.1278C69.0341 16.1278 68.4673 15.9915 67.9901 15.7188C67.5156 15.4432 67.1506 15.054 66.8949 14.5511C66.6392 14.0455 66.5114 13.4503 66.5114 12.7656C66.5114 12.0923 66.6392 11.5014 66.8949 10.9929C67.1534 10.4815 67.5142 10.0838 67.9773 9.79972C68.4403 9.51278 68.9844 9.36932 69.6094 9.36932C70.0128 9.36932 70.3935 9.43466 70.7514 9.56534C71.1122 9.69318 71.4304 9.89205 71.706 10.1619C71.9844 10.4318 72.2031 10.7756 72.3622 11.1932C72.5213 11.608 72.6009 12.1023 72.6009 12.6761V13.1491H67.2358V12.1094H71.1222C71.1193 11.8139 71.0554 11.5511 70.9304 11.321C70.8054 11.0881 70.6307 10.9048 70.4062 10.7713C70.1847 10.6378 69.9261 10.571 69.6307 10.571C69.3153 10.571 69.0384 10.6477 68.7997 10.8011C68.5611 10.9517 68.375 11.1506 68.2415 11.3977C68.1108 11.642 68.044 11.9105 68.0412 12.2031V13.1108C68.0412 13.4915 68.1108 13.8182 68.25 14.0909C68.3892 14.3608 68.5838 14.5682 68.8338 14.7131C69.0838 14.8551 69.3764 14.9261 69.7116 14.9261C69.9361 14.9261 70.1392 14.8949 70.321 14.8324C70.5028 14.767 70.6605 14.6719 70.794 14.5469C70.9276 14.4219 71.0284 14.267 71.0966 14.0824L72.5369 14.2443C72.446 14.625 72.2727 14.9574 72.017 15.2415C71.7642 15.5227 71.4403 15.7415 71.0455 15.8977C70.6506 16.0511 70.1989 16.1278 69.6903 16.1278Z" fill="white"/>
</svg>
