<svg width="96" height="18" viewBox="0 0 96 18" fill="none" xmlns="http://www.w3.org/2000/svg">
<path d="M9 4.5H16.875V5.625H9V4.5ZM9 12.375H16.875V13.5H9V12.375ZM5.625 7.875H2.25C1.95172 7.8747 1.66575 7.75608 1.45483 7.54517C1.24392 7.33425 1.1253 7.04828 1.125 6.75V3.375C1.1253 3.07672 1.24392 2.79075 1.45483 2.57983C1.66575 2.36892 1.95172 2.2503 2.25 2.25H5.625C5.92328 2.2503 6.20925 2.36892 6.42017 2.57983C6.63108 2.79075 6.7497 3.07672 6.75 3.375V6.75C6.7497 7.04828 6.63108 7.33425 6.42017 7.54517C6.20925 7.75608 5.92328 7.8747 5.625 7.875ZM2.25 3.375V6.75H5.62556L5.625 3.375H2.25ZM5.625 15.75H2.25C1.95172 15.7497 1.66575 15.6311 1.45483 15.4202C1.24392 15.2093 1.1253 14.9233 1.125 14.625V11.25C1.1253 10.9517 1.24392 10.6657 1.45483 10.4548C1.66575 10.2439 1.95172 10.1253 2.25 10.125H5.625C5.92328 10.1253 6.20925 10.2439 6.42017 10.4548C6.63108 10.6657 6.7497 10.9517 6.75 11.25V14.625C6.7497 14.9233 6.63108 15.2093 6.42017 15.4202C6.20925 15.6311 5.92328 15.7497 5.625 15.75ZM2.25 11.25V14.625H5.62556L5.625 11.25H2.25Z" fill="white"/>
<path d="M47.331 7.31743H45.7372C45.6918 7.05606 45.608 6.82453 45.4858 6.62282C45.3636 6.41828 45.2116 6.24498 45.0298 6.10294C44.848 5.96089 44.6406 5.85436 44.4077 5.78334C44.1776 5.70947 43.929 5.67254 43.6619 5.67254C43.1875 5.67254 42.767 5.79186 42.4006 6.03049C42.0341 6.26629 41.7472 6.61288 41.5398 7.07027C41.3324 7.52481 41.2287 8.08021 41.2287 8.73646C41.2287 9.40407 41.3324 9.96657 41.5398 10.424C41.75 10.8785 42.0369 11.2223 42.4006 11.4552C42.767 11.6853 43.1861 11.8004 43.6577 11.8004C43.919 11.8004 44.1634 11.7663 44.3906 11.6981C44.6207 11.6271 44.8267 11.5234 45.0085 11.387C45.1932 11.2507 45.348 11.0831 45.473 10.8842C45.6009 10.6853 45.6889 10.4581 45.7372 10.2024L47.331 10.2109C47.2713 10.6257 47.142 11.0149 46.9432 11.3785C46.7472 11.7421 46.4901 12.0632 46.1719 12.3416C45.8537 12.6171 45.4815 12.8331 45.0554 12.9893C44.6293 13.1427 44.1563 13.2194 43.6364 13.2194C42.8693 13.2194 42.1847 13.0419 41.5824 12.6867C40.9801 12.3316 40.5057 11.8188 40.1591 11.1484C39.8125 10.4779 39.6392 9.67396 39.6392 8.73646C39.6392 7.79612 39.8139 6.99214 40.1634 6.32453C40.5128 5.65407 40.9886 5.14129 41.5909 4.78618C42.1932 4.43106 42.875 4.25351 43.6364 4.25351C44.1222 4.25351 44.5739 4.32169 44.9915 4.45805C45.4091 4.59442 45.7813 4.7947 46.108 5.0589C46.4347 5.32027 46.7031 5.64129 46.9134 6.02197C47.1264 6.39981 47.2656 6.83163 47.331 7.31743ZM51.5657 13.2279C50.9265 13.2279 50.3725 13.0873 49.9038 12.8061C49.435 12.5248 49.0714 12.1313 48.8129 11.6257C48.5572 11.12 48.4293 10.5291 48.4293 9.85294C48.4293 9.1768 48.5572 8.58447 48.8129 8.07595C49.0714 7.56743 49.435 7.17254 49.9038 6.89129C50.3725 6.61004 50.9265 6.46942 51.5657 6.46942C52.2049 6.46942 52.7589 6.61004 53.2276 6.89129C53.6964 7.17254 54.0586 7.56743 54.3143 8.07595C54.5728 8.58447 54.7021 9.1768 54.7021 9.85294C54.7021 10.5291 54.5728 11.12 54.3143 11.6257C54.0586 12.1313 53.6964 12.5248 53.2276 12.8061C52.7589 13.0873 52.2049 13.2279 51.5657 13.2279ZM51.5742 11.9921C51.9208 11.9921 52.2106 11.897 52.4435 11.7066C52.6765 11.5134 52.8498 11.2549 52.9634 10.9311C53.0799 10.6072 53.1381 10.2464 53.1381 9.84868C53.1381 9.44811 53.0799 9.08589 52.9634 8.76203C52.8498 8.43532 52.6765 8.17538 52.4435 7.9822C52.2106 7.78902 51.9208 7.69243 51.5742 7.69243C51.2191 7.69243 50.9237 7.78902 50.6879 7.9822C50.4549 8.17538 50.2802 8.43532 50.1637 8.76203C50.0501 9.08589 49.9933 9.44811 49.9933 9.84868C49.9933 10.2464 50.0501 10.6072 50.1637 10.9311C50.2802 11.2549 50.4549 11.5134 50.6879 11.7066C50.9237 11.897 51.2191 11.9921 51.5742 11.9921ZM57.554 9.26487V13.1001H56.0114V6.55464H57.4858V7.66686H57.5625C57.7131 7.30038 57.9531 7.00919 58.2827 6.79328C58.6151 6.57737 59.0256 6.46942 59.5142 6.46942C59.9659 6.46942 60.3594 6.56601 60.6946 6.75919C61.0327 6.95237 61.294 7.2322 61.4787 7.59868C61.6662 7.96515 61.7585 8.40976 61.7557 8.93248V13.1001H60.2131V9.17112C60.2131 8.73362 60.0994 8.39129 59.8722 8.14413C59.6477 7.89697 59.3366 7.77339 58.9389 7.77339C58.669 7.77339 58.429 7.83305 58.2188 7.95237C58.0114 8.06885 57.848 8.23788 57.7287 8.45947C57.6122 8.68106 57.554 8.94953 57.554 9.26487ZM68.4972 8.28476L67.0909 8.43817C67.0511 8.29612 66.9815 8.1626 66.8821 8.0376C66.7855 7.9126 66.6548 7.81175 66.4901 7.73504C66.3253 7.65834 66.1236 7.61998 65.8849 7.61998C65.5639 7.61998 65.294 7.68959 65.0753 7.82879C64.8594 7.968 64.7528 8.14839 64.7557 8.36998C64.7528 8.56032 64.8224 8.71515 64.9645 8.83447C65.1094 8.95379 65.348 9.0518 65.6804 9.12851L66.7969 9.36714C67.4162 9.50067 67.8764 9.71231 68.1776 10.0021C68.4815 10.2919 68.6349 10.6711 68.6378 11.1399C68.6349 11.5518 68.5142 11.9154 68.2756 12.2308C68.0398 12.5433 67.7116 12.7876 67.2912 12.9637C66.8707 13.1399 66.3878 13.2279 65.8423 13.2279C65.0412 13.2279 64.3963 13.0603 63.9077 12.7251C63.419 12.387 63.1278 11.9169 63.0341 11.3146L64.5384 11.1697C64.6065 11.4652 64.7514 11.6882 64.973 11.8387C65.1946 11.9893 65.483 12.0646 65.8381 12.0646C66.2045 12.0646 66.4986 11.9893 66.7202 11.8387C66.9446 11.6882 67.0568 11.5021 67.0568 11.2805C67.0568 11.093 66.9844 10.9382 66.8395 10.816C66.6974 10.6938 66.4759 10.6001 66.1747 10.5348L65.0582 10.3004C64.4304 10.1697 63.9659 9.94953 63.6648 9.63987C63.3636 9.32737 63.2145 8.93248 63.2173 8.45521C63.2145 8.0518 63.3239 7.70237 63.5455 7.40692C63.7699 7.10862 64.081 6.87851 64.4787 6.71657C64.8793 6.5518 65.3409 6.46942 65.8636 6.46942C66.6307 6.46942 67.2344 6.63277 67.6747 6.95947C68.1179 7.28618 68.392 7.72794 68.4972 8.28476ZM74.0817 10.3473V6.55464H75.6243V13.1001H74.1286V11.9367H74.0604C73.9126 12.3032 73.6697 12.6029 73.3317 12.8359C72.9964 13.0688 72.5831 13.1853 72.0916 13.1853C71.6626 13.1853 71.2834 13.0902 70.9538 12.8998C70.6271 12.7066 70.3714 12.4268 70.1868 12.0603C70.0021 11.691 69.9098 11.245 69.9098 10.7223V6.55464H71.4524V10.4836C71.4524 10.8984 71.5661 11.2279 71.7933 11.4723C72.0206 11.7166 72.3189 11.8387 72.6882 11.8387C72.9155 11.8387 73.1357 11.7833 73.3487 11.6725C73.5618 11.5617 73.7365 11.397 73.8729 11.1782C74.0121 10.9566 74.0817 10.6796 74.0817 10.3473ZM78.7532 4.37282V13.1001H77.2106V4.37282H78.7532ZM83.608 6.55464V7.74782H79.8452V6.55464H83.608ZM80.7741 4.98646H82.3168V11.1313C82.3168 11.3387 82.348 11.4978 82.4105 11.6086C82.4759 11.7166 82.5611 11.7904 82.6662 11.8302C82.7713 11.87 82.8878 11.8899 83.0156 11.8899C83.1122 11.8899 83.2003 11.8828 83.2798 11.8686C83.3622 11.8544 83.4247 11.8416 83.4673 11.8302L83.7273 13.0362C83.6449 13.0646 83.527 13.0958 83.3736 13.1299C83.223 13.164 83.0384 13.1839 82.8196 13.1896C82.4332 13.2009 82.0852 13.1427 81.7756 13.0149C81.4659 12.8842 81.2202 12.6825 81.0384 12.4098C80.8594 12.137 80.7713 11.7961 80.7741 11.387V4.98646ZM86.7816 13.2322C86.3668 13.2322 85.9933 13.1583 85.6609 13.0106C85.3313 12.86 85.07 12.6384 84.8768 12.3458C84.6864 12.0532 84.5913 11.6924 84.5913 11.2634C84.5913 10.8941 84.6594 10.5887 84.7958 10.3473C84.9322 10.1058 85.1183 9.9126 85.354 9.76771C85.5898 9.62282 85.8555 9.51345 86.1509 9.43959C86.4492 9.36288 86.7575 9.30748 87.0756 9.27339C87.4592 9.23362 87.7702 9.19811 88.0089 9.16686C88.2475 9.13277 88.4208 9.08163 88.5288 9.01345C88.6396 8.94243 88.695 8.83305 88.695 8.68532V8.65976C88.695 8.33873 88.5998 8.09015 88.4094 7.91402C88.2191 7.73788 87.945 7.64981 87.587 7.64981C87.2092 7.64981 86.9094 7.7322 86.6879 7.89697C86.4691 8.06175 86.3214 8.25635 86.2447 8.48078L84.8043 8.27623C84.918 7.87851 85.1055 7.54612 85.3668 7.27907C85.6282 7.00919 85.9478 6.80748 86.3256 6.67396C86.7035 6.5376 87.1211 6.46942 87.5785 6.46942C87.8938 6.46942 88.2077 6.50635 88.5202 6.58021C88.8327 6.65407 89.1183 6.77623 89.3768 6.94669C89.6353 7.1143 89.8427 7.343 89.9989 7.63277C90.158 7.92254 90.2376 8.28476 90.2376 8.71942V13.1001H88.7546V12.2009H88.7035C88.6097 12.3828 88.4776 12.5532 88.3072 12.7123C88.1396 12.8686 87.9279 12.995 87.6722 13.0916C87.4194 13.1853 87.1225 13.2322 86.7816 13.2322ZM87.1822 12.0987C87.4918 12.0987 87.7603 12.0376 87.9876 11.9154C88.2148 11.7904 88.3896 11.6257 88.5117 11.4211C88.6367 11.2166 88.6992 10.9936 88.6992 10.7521V9.98078C88.6509 10.0206 88.5685 10.0575 88.4521 10.0916C88.3384 10.1257 88.2106 10.1555 88.0685 10.1811C87.9265 10.2066 87.7859 10.2294 87.6467 10.2492C87.5075 10.2691 87.3867 10.2862 87.2844 10.3004C87.0543 10.3316 86.8484 10.3828 86.6665 10.4538C86.4847 10.5248 86.3413 10.6242 86.2362 10.7521C86.131 10.8771 86.0785 11.039 86.0785 11.2379C86.0785 11.522 86.1822 11.7365 86.3896 11.8813C86.5969 12.0262 86.8612 12.0987 87.1822 12.0987ZM91.7887 13.1001V6.55464H93.2844V7.64555H93.3526C93.4719 7.26771 93.6765 6.97652 93.9663 6.77197C94.2589 6.56459 94.5927 6.46089 94.9677 6.46089C95.0529 6.46089 95.1481 6.46515 95.2532 6.47368C95.3612 6.47936 95.4506 6.4893 95.5217 6.50351V7.92254C95.4563 7.89981 95.3526 7.87993 95.2106 7.86288C95.0714 7.843 94.9364 7.83305 94.8058 7.83305C94.5245 7.83305 94.2717 7.89413 94.0472 8.01629C93.8256 8.13561 93.6509 8.3018 93.5231 8.51487C93.3952 8.72794 93.3313 8.97368 93.3313 9.25209V13.1001H91.7887Z" fill="white"/>
</svg>
