<svg width="97" height="18" viewBox="0 0 97 18" fill="none" xmlns="http://www.w3.org/2000/svg">
<path d="M12 1.5H6C3.51825 1.5 1.5 3.51825 1.5 6V15.75C1.5 15.9489 1.57902 16.1397 1.71967 16.2803C1.86032 16.421 2.05109 16.5 2.25 16.5H12C14.4818 16.5 16.5 14.4818 16.5 12V6C16.5 3.51825 14.4818 1.5 12 1.5ZM12.75 9.75H9.75V12.75H8.25V9.75H5.25V8.25H8.25V5.25H9.75V8.25H12.75V9.75Z" fill="white"/>
<path d="M47.331 7.21733H45.7372C45.6918 6.95597 45.608 6.72443 45.4858 6.52273C45.3636 6.31818 45.2116 6.14489 45.0298 6.00284C44.848 5.8608 44.6406 5.75426 44.4077 5.68324C44.1776 5.60938 43.929 5.57244 43.6619 5.57244C43.1875 5.57244 42.767 5.69176 42.4006 5.9304C42.0341 6.16619 41.7472 6.51278 41.5398 6.97017C41.3324 7.42472 41.2287 7.98011 41.2287 8.63636C41.2287 9.30398 41.3324 9.86648 41.5398 10.3239C41.75 10.7784 42.0369 11.1222 42.4006 11.3551C42.767 11.5852 43.1861 11.7003 43.6577 11.7003C43.919 11.7003 44.1634 11.6662 44.3906 11.598C44.6207 11.527 44.8267 11.4233 45.0085 11.2869C45.1932 11.1506 45.348 10.983 45.473 10.7841C45.6009 10.5852 45.6889 10.358 45.7372 10.1023L47.331 10.1108C47.2713 10.5256 47.142 10.9148 46.9432 11.2784C46.7472 11.642 46.4901 11.9631 46.1719 12.2415C45.8537 12.517 45.4815 12.733 45.0554 12.8892C44.6293 13.0426 44.1563 13.1193 43.6364 13.1193C42.8693 13.1193 42.1847 12.9418 41.5824 12.5866C40.9801 12.2315 40.5057 11.7188 40.1591 11.0483C39.8125 10.3778 39.6392 9.57386 39.6392 8.63636C39.6392 7.69602 39.8139 6.89205 40.1634 6.22443C40.5128 5.55398 40.9886 5.04119 41.5909 4.68608C42.1932 4.33097 42.875 4.15341 43.6364 4.15341C44.1222 4.15341 44.5739 4.22159 44.9915 4.35795C45.4091 4.49432 45.7813 4.6946 46.108 4.95881C46.4347 5.22017 46.7031 5.54119 46.9134 5.92188C47.1264 6.29972 47.2656 6.73153 47.331 7.21733ZM50.5941 13.1321C50.1793 13.1321 49.8058 13.0582 49.4734 12.9105C49.1438 12.7599 48.8825 12.5384 48.6893 12.2457C48.4989 11.9531 48.4038 11.5923 48.4038 11.1634C48.4038 10.794 48.4719 10.4886 48.6083 10.2472C48.7447 10.0057 48.9308 9.8125 49.1665 9.66761C49.4023 9.52273 49.668 9.41335 49.9634 9.33949C50.2617 9.26278 50.57 9.20739 50.8881 9.1733C51.2717 9.13352 51.5827 9.09801 51.8214 9.06676C52.06 9.03267 52.2333 8.98153 52.3413 8.91335C52.4521 8.84233 52.5075 8.73295 52.5075 8.58523V8.55966C52.5075 8.23864 52.4123 7.99006 52.2219 7.81392C52.0316 7.63778 51.7575 7.54972 51.3995 7.54972C51.0217 7.54972 50.7219 7.6321 50.5004 7.79688C50.2816 7.96165 50.1339 8.15625 50.0572 8.38068L48.6168 8.17614C48.7305 7.77841 48.918 7.44602 49.1793 7.17898C49.4407 6.90909 49.7603 6.70739 50.1381 6.57386C50.516 6.4375 50.9336 6.36932 51.391 6.36932C51.7063 6.36932 52.0202 6.40625 52.3327 6.48011C52.6452 6.55398 52.9308 6.67614 53.1893 6.84659C53.4478 7.0142 53.6552 7.2429 53.8114 7.53267C53.9705 7.82244 54.0501 8.18466 54.0501 8.61932V13H52.5671V12.1009H52.516C52.4222 12.2827 52.2901 12.4531 52.1197 12.6122C51.9521 12.7685 51.7404 12.8949 51.4847 12.9915C51.2319 13.0852 50.935 13.1321 50.5941 13.1321ZM50.9947 11.9986C51.3043 11.9986 51.5728 11.9375 51.8001 11.8153C52.0273 11.6903 52.2021 11.5256 52.3242 11.321C52.4492 11.1165 52.5117 10.8935 52.5117 10.652V9.88068C52.4634 9.92045 52.381 9.95739 52.2646 9.99148C52.1509 10.0256 52.0231 10.0554 51.881 10.081C51.739 10.1065 51.5984 10.1293 51.4592 10.1491C51.32 10.169 51.1992 10.1861 51.0969 10.2003C50.8668 10.2315 50.6609 10.2827 50.479 10.3537C50.2972 10.4247 50.1538 10.5241 50.0487 10.652C49.9435 10.777 49.891 10.9389 49.891 11.1378C49.891 11.4219 49.9947 11.6364 50.2021 11.7812C50.4094 11.9261 50.6737 11.9986 50.9947 11.9986ZM58.0302 13.1151C57.516 13.1151 57.0558 12.983 56.6495 12.7188C56.2433 12.4545 55.9222 12.071 55.6864 11.5682C55.4506 11.0653 55.3327 10.4545 55.3327 9.7358C55.3327 9.00852 55.4521 8.39489 55.6907 7.89489C55.9322 7.39205 56.2575 7.01278 56.6665 6.7571C57.0756 6.49858 57.5316 6.36932 58.0344 6.36932C58.418 6.36932 58.7333 6.43466 58.9805 6.56534C59.2276 6.69318 59.4237 6.84801 59.5685 7.02983C59.7134 7.20881 59.8256 7.37784 59.9052 7.53693H59.9691V4.27273H61.516V13H59.9989V11.9688H59.9052C59.8256 12.1278 59.7106 12.2969 59.56 12.4759C59.4094 12.652 59.2106 12.8026 58.9634 12.9276C58.7163 13.0526 58.4052 13.1151 58.0302 13.1151ZM58.4606 11.8494C58.7873 11.8494 59.0657 11.7614 59.2958 11.5852C59.5259 11.4062 59.7006 11.1577 59.82 10.8395C59.9393 10.5213 59.9989 10.1506 59.9989 9.72727C59.9989 9.30398 59.9393 8.93608 59.82 8.62358C59.7035 8.31108 59.5302 8.06818 59.3001 7.89489C59.0728 7.72159 58.793 7.63494 58.4606 7.63494C58.1168 7.63494 57.8299 7.72443 57.5998 7.90341C57.3697 8.08239 57.1964 8.32955 57.0799 8.64489C56.9634 8.96023 56.9052 9.32102 56.9052 9.72727C56.9052 10.1364 56.9634 10.5014 57.0799 10.8224C57.1992 11.1406 57.3739 11.392 57.604 11.5767C57.837 11.7585 58.1225 11.8494 58.4606 11.8494ZM65.0433 13.1321C64.6286 13.1321 64.255 13.0582 63.9226 12.9105C63.593 12.7599 63.3317 12.5384 63.1385 12.2457C62.9482 11.9531 62.853 11.5923 62.853 11.1634C62.853 10.794 62.9212 10.4886 63.0575 10.2472C63.1939 10.0057 63.38 9.8125 63.6158 9.66761C63.8516 9.52273 64.1172 9.41335 64.4126 9.33949C64.7109 9.26278 65.0192 9.20739 65.3374 9.1733C65.7209 9.13352 66.032 9.09801 66.2706 9.06676C66.5092 9.03267 66.6825 8.98153 66.7905 8.91335C66.9013 8.84233 66.9567 8.73295 66.9567 8.58523V8.55966C66.9567 8.23864 66.8615 7.99006 66.6712 7.81392C66.4808 7.63778 66.2067 7.54972 65.8487 7.54972C65.4709 7.54972 65.1712 7.6321 64.9496 7.79688C64.7308 7.96165 64.5831 8.15625 64.5064 8.38068L63.0661 8.17614C63.1797 7.77841 63.3672 7.44602 63.6286 7.17898C63.8899 6.90909 64.2095 6.70739 64.5874 6.57386C64.9652 6.4375 65.3828 6.36932 65.8402 6.36932C66.1555 6.36932 66.4695 6.40625 66.782 6.48011C67.0945 6.55398 67.38 6.67614 67.6385 6.84659C67.897 7.0142 68.1044 7.2429 68.2607 7.53267C68.4197 7.82244 68.4993 8.18466 68.4993 8.61932V13H67.0163V12.1009H66.9652C66.8714 12.2827 66.7393 12.4531 66.5689 12.6122C66.4013 12.7685 66.1896 12.8949 65.9339 12.9915C65.6811 13.0852 65.3842 13.1321 65.0433 13.1321ZM65.4439 11.9986C65.7536 11.9986 66.022 11.9375 66.2493 11.8153C66.4766 11.6903 66.6513 11.5256 66.7734 11.321C66.8984 11.1165 66.9609 10.8935 66.9609 10.652V9.88068C66.9126 9.92045 66.8303 9.95739 66.7138 9.99148C66.6001 10.0256 66.4723 10.0554 66.3303 10.081C66.1882 10.1065 66.0476 10.1293 65.9084 10.1491C65.7692 10.169 65.6484 10.1861 65.5462 10.2003C65.3161 10.2315 65.1101 10.2827 64.9283 10.3537C64.7464 10.4247 64.603 10.5241 64.4979 10.652C64.3928 10.777 64.3402 10.9389 64.3402 11.1378C64.3402 11.4219 64.4439 11.6364 64.6513 11.7812C64.8587 11.9261 65.1229 11.9986 65.4439 11.9986ZM75.2237 8.18466L73.8175 8.33807C73.7777 8.19602 73.7081 8.0625 73.6087 7.9375C73.5121 7.8125 73.3814 7.71165 73.2166 7.63494C73.0518 7.55824 72.8501 7.51989 72.6115 7.51989C72.2905 7.51989 72.0206 7.58949 71.8018 7.72869C71.5859 7.8679 71.4794 8.0483 71.4822 8.26989C71.4794 8.46023 71.549 8.61506 71.6911 8.73438C71.8359 8.85369 72.0746 8.9517 72.407 9.02841L73.5234 9.26705C74.1428 9.40057 74.603 9.61222 74.9041 9.90199C75.2081 10.1918 75.3615 10.571 75.3643 11.0398C75.3615 11.4517 75.2408 11.8153 75.0021 12.1307C74.7663 12.4432 74.4382 12.6875 74.0178 12.8636C73.5973 13.0398 73.1143 13.1278 72.5689 13.1278C71.7678 13.1278 71.1229 12.9602 70.6342 12.625C70.1456 12.2869 69.8544 11.8168 69.7607 11.2145L71.2649 11.0696C71.3331 11.3651 71.478 11.5881 71.6996 11.7386C71.9212 11.8892 72.2095 11.9645 72.5646 11.9645C72.9311 11.9645 73.2251 11.8892 73.4467 11.7386C73.6712 11.5881 73.7834 11.402 73.7834 11.1804C73.7834 10.9929 73.7109 10.8381 73.5661 10.7159C73.424 10.5937 73.2024 10.5 72.9013 10.4347L71.7848 10.2003C71.157 10.0696 70.6925 9.84943 70.3913 9.53977C70.0902 9.22727 69.9411 8.83239 69.9439 8.35511C69.9411 7.9517 70.0504 7.60227 70.272 7.30682C70.4964 7.00852 70.8075 6.77841 71.2053 6.61648C71.6058 6.4517 72.0675 6.36932 72.5902 6.36932C73.3572 6.36932 73.9609 6.53267 74.4013 6.85938C74.8445 7.18608 75.1186 7.62784 75.2237 8.18466ZM79.9048 6.45455V7.64773H76.142V6.45455H79.9048ZM77.071 4.88636H78.6136V11.0312C78.6136 11.2386 78.6449 11.3977 78.7074 11.5085C78.7727 11.6165 78.858 11.6903 78.9631 11.7301C79.0682 11.7699 79.1847 11.7898 79.3125 11.7898C79.4091 11.7898 79.4972 11.7827 79.5767 11.7685C79.6591 11.7543 79.7216 11.7415 79.7642 11.7301L80.0241 12.9361C79.9418 12.9645 79.8239 12.9957 79.6705 13.0298C79.5199 13.0639 79.3352 13.0838 79.1165 13.0895C78.7301 13.1009 78.3821 13.0426 78.0724 12.9148C77.7628 12.7841 77.517 12.5824 77.3352 12.3097C77.1563 12.0369 77.0682 11.696 77.071 11.2869V4.88636ZM81.195 13V6.45455H82.6907V7.54545H82.7589C82.8782 7.16761 83.0827 6.87642 83.3725 6.67188C83.6651 6.46449 83.9989 6.3608 84.3739 6.3608C84.4592 6.3608 84.5543 6.36506 84.6594 6.37358C84.7674 6.37926 84.8569 6.3892 84.9279 6.40341V7.82244C84.8626 7.79972 84.7589 7.77983 84.6168 7.76278C84.4776 7.7429 84.3427 7.73295 84.212 7.73295C83.9308 7.73295 83.6779 7.79403 83.4535 7.91619C83.2319 8.03551 83.0572 8.2017 82.9293 8.41477C82.8015 8.62784 82.7376 8.87358 82.7376 9.15199V13H81.195ZM87.7191 13.1321C87.3043 13.1321 86.9308 13.0582 86.5984 12.9105C86.2688 12.7599 86.0075 12.5384 85.8143 12.2457C85.6239 11.9531 85.5288 11.5923 85.5288 11.1634C85.5288 10.794 85.5969 10.4886 85.7333 10.2472C85.8697 10.0057 86.0558 9.8125 86.2915 9.66761C86.5273 9.52273 86.793 9.41335 87.0884 9.33949C87.3867 9.26278 87.695 9.20739 88.0131 9.1733C88.3967 9.13352 88.7077 9.09801 88.9464 9.06676C89.185 9.03267 89.3583 8.98153 89.4663 8.91335C89.5771 8.84233 89.6325 8.73295 89.6325 8.58523V8.55966C89.6325 8.23864 89.5373 7.99006 89.3469 7.81392C89.1566 7.63778 88.8825 7.54972 88.5245 7.54972C88.1467 7.54972 87.8469 7.6321 87.6254 7.79688C87.4066 7.96165 87.2589 8.15625 87.1822 8.38068L85.7418 8.17614C85.8555 7.77841 86.043 7.44602 86.3043 7.17898C86.5657 6.90909 86.8853 6.70739 87.2631 6.57386C87.641 6.4375 88.0586 6.36932 88.516 6.36932C88.8313 6.36932 89.1452 6.40625 89.4577 6.48011C89.7702 6.55398 90.0558 6.67614 90.3143 6.84659C90.5728 7.0142 90.7802 7.2429 90.9364 7.53267C91.0955 7.82244 91.1751 8.18466 91.1751 8.61932V13H89.6921V12.1009H89.641C89.5472 12.2827 89.4151 12.4531 89.2447 12.6122C89.0771 12.7685 88.8654 12.8949 88.6097 12.9915C88.3569 13.0852 88.06 13.1321 87.7191 13.1321ZM88.1197 11.9986C88.4293 11.9986 88.6978 11.9375 88.9251 11.8153C89.1523 11.6903 89.3271 11.5256 89.4492 11.321C89.5742 11.1165 89.6367 10.8935 89.6367 10.652V9.88068C89.5884 9.92045 89.506 9.95739 89.3896 9.99148C89.2759 10.0256 89.1481 10.0554 89.006 10.081C88.864 10.1065 88.7234 10.1293 88.5842 10.1491C88.445 10.169 88.3242 10.1861 88.2219 10.2003C87.9918 10.2315 87.7859 10.2827 87.604 10.3537C87.4222 10.4247 87.2788 10.5241 87.1737 10.652C87.0685 10.777 87.016 10.9389 87.016 11.1378C87.016 11.4219 87.1197 11.6364 87.3271 11.7812C87.5344 11.9261 87.7987 11.9986 88.1197 11.9986ZM92.7262 13V6.45455H94.2219V7.54545H94.2901C94.4094 7.16761 94.614 6.87642 94.9038 6.67188C95.1964 6.46449 95.5302 6.3608 95.9052 6.3608C95.9904 6.3608 96.0856 6.36506 96.1907 6.37358C96.2987 6.37926 96.3881 6.3892 96.4592 6.40341V7.82244C96.3938 7.79972 96.2901 7.77983 96.1481 7.76278C96.0089 7.7429 95.8739 7.73295 95.7433 7.73295C95.462 7.73295 95.2092 7.79403 94.9847 7.91619C94.7631 8.03551 94.5884 8.2017 94.4606 8.41477C94.3327 8.62784 94.2688 8.87358 94.2688 9.15199V13H92.7262Z" fill="white"/>
</svg>
